<svg xmlns="http://www.w3.org/2000/svg" width="512" height="512" viewBox="0 0 512 512">
<circle cx="256" cy="256" r="220" fill="#0D452E"/>
<circle cx="256" cy="256" r="190" fill="#F4E8C9" stroke="#D8B968" stroke-width="12"/>
<circle cx="256" cy="256" r="154" fill="#E9F2DB"/>
<path d="M105 294c62-65 116-94 169-91 52 3 91 34 133 74v101H105V294Z" fill="#2F7A4D"/>
<path d="M105 333c64-47 121-59 173-41 47 16 84 46 129 78v40H105v-77Z" fill="#195C3A"/>
<path d="M267 198c-22 54-19 93 10 119 23 21 21 54 4 97h-53c24-51 28-90 0-119-20-21-18-55 7-97h32Z" fill="#55B8D3"/>
<path d="M153 204c44-52 75-68 103-45 26-32 60-30 103 16" fill="none" stroke="#0D452E" stroke-width="14" stroke-linecap="round"/>
<g fill="#D8B968">
<path d="M99 263c-24-13-34-34-28-61 28 5 46 18 53 42-4 9-13 15-25 19Z"/>
<path d="M413 263c24-13 34-34 28-61-28 5-46 18-53 42 4 9 13 15 25 19Z"/>
<path d="M108 315c-25-7-41-23-47-49 27-2 48 7 61 29-1 9-6 16-14 20Z"/>
<path d="M404 315c25-7 41-23 47-49-27-2-48 7-61 29 1 9 6 16 14 20Z"/>
</g>
</svg>